# xmcd
#
# Track frame offsets:
#	150
#	17709
#	31269
#	43623
#	57126
#	67974
#	81154
#	93609
#	111199
#	123787
#	137393
#	151194
#	165392
#	179356
#	193971
#	213636
#
# Disc length: 3050 seconds
#
# Revision: 1
# Processed by: cddbd v1.5.2PL0 Copyright (c) Steve Scherf et al.
# Submitted via: audiograbber 1.83.01
#
DISCID=d00be810
DTITLE=Various Artist - Santa Claus Is Coming To Town
DYEAR=2009
DGENRE=Christmas
TTITLE0=Leonardo - All I Want For Christmas
TTITLE1=Rockabilly Allstars - Silver Bells
TTITLE2=Billy Rock and The Snowcats - Let It Snow
TTITLE3=The Reggea Connection - Frosty The Snowman
TTITLE4=The Rockabilly Christmas Gentleman -  Angel Will Have Heard On High
TTITLE5=Rockabilly Allstars - Pretty Paper
TTITLE6=Billy Rock and The Snowcats - Christmas
TTITLE7=The Reggea Connection - Santa Claus Is Coming To Town
TTITLE8=Leonardo - Please Come Home For Christmas
TTITLE9=Billy Rock and The Snowcats - I´ll Be Home For Christmas
TTITLE10=The Rockabilly Christmas Gentleman - Hark The Herald Sings
TTITLE11=Leonardo - Christmas Blues
TTITLE12=The Rockabilly Christmas Gentleman - Oh Christmas Tree
TTITLE13=The Reggea Connection - Holly Jolly Christmas 
TTITLE14=Leonardo - Savior´s Day
TTITLE15=Billy Rock and The Snowcats - White Christmas (Instrumental)
EXTD=
EXTT0=
EXTT1=
EXTT2=
EXTT3=
EXTT4=
EXTT5=
EXTT6=
EXTT7=
EXTT8=
EXTT9=
EXTT10=
EXTT11=
EXTT12=
EXTT13=
EXTT14=
EXTT15=
PLAYORDER=
